<svg width="16" height="17" viewBox="0 0 16 17" fill="none" xmlns="http://www.w3.org/2000/svg">
<g clip-path="url(#clip0_3652_30690)">
<path d="M9.5 0.5C9.63261 0.5 9.75979 0.552678 9.85355 0.646447C9.94732 0.740215 10 0.867392 10 1C10 1.13261 10.0527 1.25979 10.1464 1.35355C10.2402 1.44732 10.3674 1.5 10.5 1.5C10.6326 1.5 10.7598 1.55268 10.8536 1.64645C10.9473 1.74021 11 1.86739 11 2V2.5C11 2.63261 10.9473 2.75979 10.8536 2.85355C10.7598 2.94732 10.6326 3 10.5 3H5.5C5.36739 3 5.24021 2.94732 5.14645 2.85355C5.05268 2.75979 5 2.63261 5 2.5V2C5 1.86739 5.05268 1.74021 5.14645 1.64645C5.24021 1.55268 5.36739 1.5 5.5 1.5C5.63261 1.5 5.75979 1.44732 5.85355 1.35355C5.94732 1.25979 6 1.13261 6 1C6 0.867392 6.05268 0.740215 6.14645 0.646447C6.24021 0.552678 6.36739 0.5 6.5 0.5H9.5Z" fill="#9E9E9E"/>
<path d="M3 3C3 2.86739 3.05268 2.74021 3.14645 2.64645C3.24021 2.55268 3.36739 2.5 3.5 2.5H4C4.13261 2.5 4.25979 2.44732 4.35355 2.35355C4.44732 2.25979 4.5 2.13261 4.5 2C4.5 1.86739 4.44732 1.74021 4.35355 1.64645C4.25979 1.55268 4.13261 1.5 4 1.5H3.5C3.10218 1.5 2.72064 1.65804 2.43934 1.93934C2.15804 2.22064 2 2.60218 2 3V15C2 15.3978 2.15804 15.7794 2.43934 16.0607C2.72064 16.342 3.10218 16.5 3.5 16.5H12.5C12.8978 16.5 13.2794 16.342 13.5607 16.0607C13.842 15.7794 14 15.3978 14 15V3C14 2.60218 13.842 2.22064 13.5607 1.93934C13.2794 1.65804 12.8978 1.5 12.5 1.5H12C11.8674 1.5 11.7402 1.55268 11.6464 1.64645C11.5527 1.74021 11.5 1.86739 11.5 2C11.5 2.13261 11.5527 2.25979 11.6464 2.35355C11.7402 2.44732 11.8674 2.5 12 2.5H12.5C12.6326 2.5 12.7598 2.55268 12.8536 2.64645C12.9473 2.74021 13 2.86739 13 3V15C13 15.1326 12.9473 15.2598 12.8536 15.3536C12.7598 15.4473 12.6326 15.5 12.5 15.5H3.5C3.36739 15.5 3.24021 15.4473 3.14645 15.3536C3.05268 15.2598 3 15.1326 3 15V3Z" fill="#9E9E9E"/>
<path d="M8.35355 6.64645C8.44732 6.74021 8.5 6.86739 8.5 7V8.5H10C10.1326 8.5 10.2598 8.55268 10.3536 8.64645C10.4473 8.74021 10.5 8.86739 10.5 9C10.5 9.13261 10.4473 9.25979 10.3536 9.35355C10.2598 9.44732 10.1326 9.5 10 9.5H8.5V11C8.5 11.1326 8.44732 11.2598 8.35355 11.3536C8.25979 11.4473 8.13261 11.5 8 11.5C7.86739 11.5 7.74021 11.4473 7.64645 11.3536C7.55268 11.2598 7.5 11.1326 7.5 11V9.5H6C5.86739 9.5 5.74021 9.44732 5.64645 9.35355C5.55268 9.25979 5.5 9.13261 5.5 9C5.5 8.86739 5.55268 8.74021 5.64645 8.64645C5.74021 8.55268 5.86739 8.5 6 8.5H7.5V7C7.5 6.86739 7.55268 6.74021 7.64645 6.64645C7.74021 6.55268 7.86739 6.5 8 6.5C8.13261 6.5 8.25979 6.55268 8.35355 6.64645Z" fill="#9E9E9E"/>
</g>
<defs>
<clipPath id="clip0_3652_30690">
<rect width="16" height="16" fill="white" transform="translate(0 0.5)"/>
</clipPath>
</defs>
</svg>
