<svg width="15" height="15" viewBox="0 0 15 15" fill="none" xmlns="http://www.w3.org/2000/svg">
<mask id="path-1-inside-1_3313_32319" fill="white">
<path d="M14.502 1.43991C14.5954 1.53363 14.6479 1.66057 14.6479 1.7929C14.6479 1.92524 14.5954 2.05218 14.502 2.1459L13.459 3.1899L11.459 1.18991L12.502 0.145905C12.5958 0.0521695 12.7229 -0.000488281 12.8555 -0.000488281C12.9881 -0.000488281 13.1152 0.0521695 13.209 0.145905L14.502 1.43891V1.43991ZM12.752 3.8959L10.752 1.8959L3.939 8.7099C3.88396 8.76493 3.84253 8.83204 3.818 8.9059L3.013 11.3199C2.9984 11.3639 2.99633 11.4111 3.00701 11.4562C3.0177 11.5014 3.04072 11.5426 3.07351 11.5754C3.10629 11.6082 3.14755 11.6312 3.19267 11.6419C3.23779 11.6526 3.28499 11.6505 3.329 11.6359L5.743 10.8309C5.81676 10.8067 5.88387 10.7656 5.939 10.7109L12.752 3.8959Z"/>
<path fill-rule="evenodd" clip-rule="evenodd" d="M0 12.9999C0 13.3977 0.158035 13.7793 0.43934 14.0606C0.720644 14.3419 1.10218 14.4999 1.5 14.4999H12.5C12.8978 14.4999 13.2794 14.3419 13.5607 14.0606C13.842 13.7793 14 13.3977 14 12.9999V6.99991C14 6.8673 13.9473 6.74012 13.8536 6.64635C13.7598 6.55258 13.6326 6.49991 13.5 6.49991C13.3674 6.49991 13.2402 6.55258 13.1464 6.64635C13.0527 6.74012 13 6.8673 13 6.99991V12.9999C13 13.1325 12.9473 13.2597 12.8536 13.3535C12.7598 13.4472 12.6326 13.4999 12.5 13.4999H1.5C1.36739 13.4999 1.24021 13.4472 1.14645 13.3535C1.05268 13.2597 1 13.1325 1 12.9999V1.9999C1 1.8673 1.05268 1.74012 1.14645 1.64635C1.24021 1.55258 1.36739 1.4999 1.5 1.4999H8C8.13261 1.4999 8.25979 1.44723 8.35355 1.35346C8.44732 1.25969 8.5 1.13251 8.5 0.999905C8.5 0.867297 8.44732 0.74012 8.35355 0.646352C8.25979 0.552583 8.13261 0.499905 8 0.499905H1.5C1.10218 0.499905 0.720644 0.65794 0.43934 0.939245C0.158035 1.22055 0 1.60208 0 1.9999V12.9999Z"/>
</mask>
<path d="M14.502 1.43991C14.5954 1.53363 14.6479 1.66057 14.6479 1.7929C14.6479 1.92524 14.5954 2.05218 14.502 2.1459L13.459 3.1899L11.459 1.18991L12.502 0.145905C12.5958 0.0521695 12.7229 -0.000488281 12.8555 -0.000488281C12.9881 -0.000488281 13.1152 0.0521695 13.209 0.145905L14.502 1.43891V1.43991ZM12.752 3.8959L10.752 1.8959L3.939 8.7099C3.88396 8.76493 3.84253 8.83204 3.818 8.9059L3.013 11.3199C2.9984 11.3639 2.99633 11.4111 3.00701 11.4562C3.0177 11.5014 3.04072 11.5426 3.07351 11.5754C3.10629 11.6082 3.14755 11.6312 3.19267 11.6419C3.23779 11.6526 3.28499 11.6505 3.329 11.6359L5.743 10.8309C5.81676 10.8067 5.88387 10.7656 5.939 10.7109L12.752 3.8959Z" stroke="#9E9E9E" stroke-width="2" mask="url(#path-1-inside-1_3313_32319)"/>
<path fill-rule="evenodd" clip-rule="evenodd" d="M0 12.9999C0 13.3977 0.158035 13.7793 0.43934 14.0606C0.720644 14.3419 1.10218 14.4999 1.5 14.4999H12.5C12.8978 14.4999 13.2794 14.3419 13.5607 14.0606C13.842 13.7793 14 13.3977 14 12.9999V6.99991C14 6.8673 13.9473 6.74012 13.8536 6.64635C13.7598 6.55258 13.6326 6.49991 13.5 6.49991C13.3674 6.49991 13.2402 6.55258 13.1464 6.64635C13.0527 6.74012 13 6.8673 13 6.99991V12.9999C13 13.1325 12.9473 13.2597 12.8536 13.3535C12.7598 13.4472 12.6326 13.4999 12.5 13.4999H1.5C1.36739 13.4999 1.24021 13.4472 1.14645 13.3535C1.05268 13.2597 1 13.1325 1 12.9999V1.9999C1 1.8673 1.05268 1.74012 1.14645 1.64635C1.24021 1.55258 1.36739 1.4999 1.5 1.4999H8C8.13261 1.4999 8.25979 1.44723 8.35355 1.35346C8.44732 1.25969 8.5 1.13251 8.5 0.999905C8.5 0.867297 8.44732 0.74012 8.35355 0.646352C8.25979 0.552583 8.13261 0.499905 8 0.499905H1.5C1.10218 0.499905 0.720644 0.65794 0.43934 0.939245C0.158035 1.22055 0 1.60208 0 1.9999V12.9999Z" stroke="#9E9E9E" stroke-width="2" mask="url(#path-1-inside-1_3313_32319)"/>
</svg>
