<svg width="20" height="20" viewBox="0 0 20 20" fill="none" xmlns="http://www.w3.org/2000/svg">
<path d="M16.6665 6.66669C17.3433 6.66671 18.0042 6.46069 18.5611 6.07602C19.118 5.69135 19.5446 5.14626 19.7842 4.51324C20.0238 3.88023 20.065 3.18927 19.9023 2.53227C19.7396 1.87527 19.3808 1.28335 18.8736 0.835226C18.3663 0.387105 17.7347 0.104018 17.0626 0.0236091C16.3905 -0.0567995 15.7099 0.0692812 15.1113 0.385085C14.5126 0.700889 14.0243 1.19145 13.7112 1.79153C13.3981 2.39162 13.2751 3.07279 13.3586 3.74446L5.6473 7.60002C5.17644 7.14597 4.58238 6.84049 3.93914 6.72163C3.2959 6.60277 2.6319 6.67578 2.02986 6.93158C1.42782 7.18738 0.914344 7.61465 0.553401 8.16017C0.192459 8.7057 0 9.34536 0 9.99948C0 10.6536 0.192459 11.2933 0.553401 11.8388C0.914344 12.3843 1.42782 12.8116 2.02986 13.0674C2.6319 13.3232 3.2959 13.3962 3.93914 13.2773C4.58238 13.1585 5.17644 12.853 5.6473 12.3989L13.3586 16.2545C13.2614 17.0348 13.4431 17.8243 13.8717 18.4835C14.3003 19.1427 14.9481 19.6293 15.7007 19.8571C16.4533 20.0848 17.2622 20.0393 17.9845 19.7284C18.7067 19.4175 19.2958 18.8612 19.6476 18.158C19.9994 17.4548 20.0913 16.6499 19.907 15.8855C19.7228 15.1211 19.2742 14.4464 18.6406 13.9808C18.007 13.5151 17.2292 13.2884 16.4446 13.3407C15.66 13.393 14.9192 13.721 14.3531 14.2667L6.64177 10.4111C6.67537 10.1381 6.67537 9.86197 6.64177 9.58892L14.3531 5.73335C14.9509 6.31113 15.7665 6.66669 16.6665 6.66669Z" fill="#001061" fill-opacity="0.73"/>
</svg>
