<svg width="30" height="29" viewBox="0 0 30 29" fill="none" xmlns="http://www.w3.org/2000/svg">
<g clip-path="url(#clip0_705_4888)">
<path d="M17.3436 0H7.75C6.78859 0 5.86656 0.381919 5.18674 1.06174C4.50692 1.74156 4.125 2.66359 4.125 3.625V25.375C4.125 26.3364 4.50692 27.2584 5.18674 27.9383C5.86656 28.6181 6.78859 29 7.75 29H22.25C23.2114 29 24.1334 28.6181 24.8133 27.9383C25.4931 27.2584 25.875 26.3364 25.875 25.375V8.53144C25.8749 8.05077 25.6839 7.58983 25.3439 7.25L18.625 0.531063C18.2852 0.191129 17.8242 0.000102655 17.3436 0ZM17.7188 6.34375V2.71875L23.1562 8.15625H19.5312C19.0505 8.15625 18.5895 7.96529 18.2496 7.62538C17.9097 7.28547 17.7188 6.82445 17.7188 6.34375ZM20.1729 14.2354L14.7354 19.6729C14.6512 19.7573 14.5512 19.8242 14.4411 19.8699C14.331 19.9156 14.213 19.9391 14.0938 19.9391C13.9745 19.9391 13.8565 19.9156 13.7464 19.8699C13.6363 19.8242 13.5363 19.7573 13.4521 19.6729L10.7334 16.9541C10.6491 16.8699 10.5823 16.7698 10.5367 16.6597C10.4911 16.5497 10.4676 16.4317 10.4676 16.3125C10.4676 16.1933 10.4911 16.0753 10.5367 15.9653C10.5823 15.8552 10.6491 15.7551 10.7334 15.6709C10.9035 15.5007 11.1343 15.4051 11.375 15.4051C11.4942 15.4051 11.6122 15.4286 11.7222 15.4742C11.8323 15.5198 11.9324 15.5866 12.0166 15.6709L14.0938 17.7498L18.8896 12.9521C19.0598 12.782 19.2906 12.6864 19.5312 12.6864C19.7719 12.6864 20.0027 12.782 20.1729 12.9521C20.343 13.1223 20.4386 13.3531 20.4386 13.5938C20.4386 13.8344 20.343 14.0652 20.1729 14.2354Z" fill="#001061"/>
</g>
<defs>
<clipPath id="clip0_705_4888">
<rect width="29" height="29" fill="white" transform="translate(0.5)"/>
</clipPath>
</defs>
</svg>
