<svg width="34" height="31" viewBox="0 0 34 31" fill="none" xmlns="http://www.w3.org/2000/svg">
<path d="M26.6943 19.4583H23.4721V22.6806H26.6943M26.6943 13.0139H23.4721V16.2361H26.6943M29.9165 25.9028H17.0276V22.6806H20.2498V19.4583H17.0276V16.2361H20.2498V13.0139H17.0276V9.79167H29.9165M13.8054 6.56944H10.5832V3.34722H13.8054M13.8054 13.0139H10.5832V9.79167H13.8054M13.8054 19.4583H10.5832V16.2361H13.8054M13.8054 25.9028H10.5832V22.6806H13.8054M7.36095 6.56944H4.13873V3.34722H7.36095M7.36095 13.0139H4.13873V9.79167H7.36095M7.36095 19.4583H4.13873V16.2361H7.36095M7.36095 25.9028H4.13873V22.6806H7.36095M17.0276 6.56944V0.125H0.916504V29.125H33.1387V6.56944H17.0276Z" fill="#001061"/>
</svg>
