<svg width="30" height="32" viewBox="0 0 30 32" fill="none" xmlns="http://www.w3.org/2000/svg">
<path d="M14.4223 31.9272C14.0714 31.9227 13.7361 31.7812 13.488 31.533C13.2398 31.2849 13.0983 30.9496 13.0938 30.5987V2.25582C13.0938 1.90346 13.2337 1.56553 13.4829 1.31638C13.732 1.06722 14.07 0.927246 14.4223 0.927246C14.7747 0.927246 15.1126 1.06722 15.3618 1.31638C15.6109 1.56553 15.7509 1.90346 15.7509 2.25582V30.5987C15.7463 30.9496 15.6049 31.2849 15.3567 31.533C15.1085 31.7812 14.7733 31.9227 14.4223 31.9272Z" fill="#001061"/>
<path d="M17.3868 28.316H6.32626C5.98779 28.316 5.66318 28.1815 5.42384 27.9422C5.18451 27.7029 5.05005 27.3782 5.05005 27.0398C5.05005 26.7013 5.18451 26.3767 5.42384 26.1373C5.66318 25.898 5.98779 25.7636 6.32626 25.7636H17.3868C18.5125 25.8639 19.6327 25.5193 20.5074 24.8036C21.382 24.088 21.9416 23.0582 22.0662 21.9349C21.9416 20.8117 21.382 19.7819 20.5074 19.0662C19.6327 18.3505 18.5125 18.006 17.3868 18.1063H12.2819C11.3877 18.1639 10.4909 18.0444 9.64297 17.7547C8.79504 17.4649 8.01268 17.0105 7.34077 16.4177C6.66886 15.8248 6.12063 15.1051 5.72753 14.2999C5.33443 13.4946 5.1042 12.6197 5.05005 11.7252C5.1042 10.8308 5.33443 9.95585 5.72753 9.15061C6.12063 8.34536 6.66886 7.62566 7.34077 7.0328C8.01268 6.43994 8.79504 5.98558 9.64297 5.69581C10.4909 5.40603 11.3877 5.28653 12.2819 5.34418H21.6408C21.9793 5.34418 22.3039 5.47863 22.5432 5.71797C22.7826 5.95731 22.917 6.28191 22.917 6.62039C22.917 6.95886 22.7826 7.28347 22.5432 7.5228C22.3039 7.76214 21.9793 7.8966 21.6408 7.8966H12.2819C11.1562 7.79627 10.036 8.14086 9.16132 8.85651C8.28663 9.57217 7.72704 10.602 7.60247 11.7252C7.72704 12.8485 8.28663 13.8783 9.16132 14.5939C10.036 15.3096 11.1562 15.6542 12.2819 15.5539H17.3868C18.281 15.4962 19.1778 15.6157 20.0257 15.9055C20.8736 16.1953 21.656 16.6496 22.3279 17.2425C22.9998 17.8354 23.548 18.555 23.9411 19.3603C24.3342 20.1655 24.5645 21.0405 24.6186 21.9349C24.5645 22.8294 24.3342 23.7043 23.9411 24.5095C23.548 25.3148 22.9998 26.0345 22.3279 26.6274C21.656 27.2202 20.8736 27.6746 20.0257 27.9643C19.1778 28.2541 18.281 28.3736 17.3868 28.316Z" fill="#001061"/>
</svg>
