<svg width="29" height="31" viewBox="0 0 29 31" fill="none" xmlns="http://www.w3.org/2000/svg">
<path fill-rule="evenodd" clip-rule="evenodd" d="M0.581546 17.2255L1.01747 17.4895L4.6676 19.8015C5.5543 20.3629 6.78428 20.2027 7.50825 19.43L8.19717 18.6943L9.70094 21.0843C10.4124 22.2156 11.814 22.2082 12.519 21.0744L15.8128 15.7727L19.5841 22.4864C20.3193 23.7951 21.8314 23.6053 22.2406 22.1464L26.357 7.45981L26.471 7.07035C28.1179 9.54681 28.998 12.4882 28.9933 15.5001C28.9933 23.6943 22.6118 30.3369 14.7396 30.3369C7.42866 30.3369 1.40351 24.6068 0.581546 17.2255ZM0.506714 14.6785C0.917695 6.86634 7.1323 0.66333 14.7396 0.66333C18.6962 0.66333 22.2763 2.34112 24.8585 5.05131L24.4024 6.86634L20.6626 20.2071L17.25 14.132C16.5825 12.9439 15.1654 12.9117 14.448 14.0665L11.1043 19.4473L9.7627 17.3151C9.09753 16.2586 7.76125 16.1239 6.91434 17.0283L6.05021 17.95C5.98904 18.0149 5.80315 18.0397 5.72594 17.9908L2.07581 15.6788L0.506714 14.6785Z" fill="#001061"/>
</svg>
