<svg width="29" height="31" viewBox="0 0 29 31" fill="none" xmlns="http://www.w3.org/2000/svg">
<path d="M14.2498 29.2769C21.3715 29.2769 26.4584 26.6529 26.4584 20.8115C26.4584 14.4635 23.4062 10.2307 17.3019 7.05566L19.703 3.8382C19.8252 3.62715 19.8916 3.38611 19.8954 3.13963C19.8991 2.89315 19.8401 2.65004 19.7243 2.43507C19.6085 2.22009 19.4401 2.04092 19.2362 1.91582C19.0322 1.79072 18.8001 1.72415 18.5635 1.7229H9.93612C9.69998 1.72546 9.46865 1.79284 9.26548 1.91824C9.06231 2.04365 8.89448 2.22264 8.77892 2.43717C8.66336 2.65171 8.60414 2.89419 8.60726 3.14017C8.61037 3.38614 8.6757 3.62692 8.79666 3.8382L11.1977 7.07686C5.0934 10.2731 2.04126 14.5058 2.04126 20.8539C2.04126 26.6529 7.12815 29.2769 14.2498 29.2769Z" fill="#001061" stroke="#001061" stroke-width="1.18694" stroke-linecap="round" stroke-linejoin="round"/>
<path d="M17.0638 15.0886C16.9121 14.6404 16.6306 14.2522 16.2581 13.9777C15.8856 13.7032 15.4405 13.5559 14.9843 13.5562H13.2791C12.7933 13.5552 12.3243 13.7415 11.9624 14.0792C11.6005 14.4168 11.3713 14.882 11.3191 15.3852C11.2668 15.8883 11.395 16.3938 11.6791 16.8044C11.9633 17.2149 12.3831 17.5014 12.8579 17.6088L15.4563 18.2022C15.9858 18.3252 16.4532 18.6472 16.7691 19.1065C17.0851 19.5658 17.2275 20.1303 17.1691 20.6921C17.1106 21.2539 16.8555 21.7736 16.4525 22.1518C16.0494 22.53 15.5267 22.7402 14.9843 22.7423H13.5172C12.5568 22.7423 11.7408 22.1022 11.4377 21.212M14.2497 13.5562V11.2607M14.2497 25.0378V22.7423" stroke="white" stroke-width="1.18694" stroke-linecap="round" stroke-linejoin="round"/>
</svg>
