<svg width="30" height="30" viewBox="0 0 30 30" fill="none" xmlns="http://www.w3.org/2000/svg">
<path d="M12.1784 3.0143L11.7819 2.76565C11.006 2.28986 10.0374 2.01346 9.20479 2.27287C8.30987 2.55154 7.5962 3.24086 7.22237 4.27625L6.68995 4.00211C5.77237 3.52973 5.29205 3.52236 4.89387 3.70135C4.57612 3.84352 4.24477 4.18563 3.86924 4.6852L8.53643 8.29377C9.26709 8.53166 10.3376 8.526 11.4081 8.24846C12.4843 7.97092 13.5548 7.42717 14.3364 6.6965L16.098 2.34084C14.546 1.11457 13.13 1.82484 12.1784 3.0143ZM15.186 7.34787C14.2232 8.32209 12.7901 8.97912 11.6743 9.27365C11.2835 9.37561 10.8927 9.44924 10.5132 9.48889C10.3036 9.8344 10.128 10.1856 9.99209 10.5367C10.264 11.9188 10.7737 13.0516 11.5384 13.9805L10.7228 14.6602C10.2526 14.0938 9.8335 13.4821 9.51631 12.8024C9.46534 14.1164 9.75987 15.4758 10.2413 16.8918L9.23877 17.2317C8.35518 14.6488 8.05498 12.0037 9.29541 9.51154C8.87627 9.47756 8.47979 9.39826 8.11163 9.26799L8.09463 9.26232C7.85108 9.49455 7.61885 9.73811 7.39795 9.99299C5.60981 12.066 4.62483 14.8244 5.14026 16.9711C5.4161 18.1209 5.91057 19.2084 6.62198 20.1373C7.66416 20.1147 8.64971 20.1373 9.54463 20.4772C9.96944 20.4319 10.4056 20.4035 10.8587 20.4035C12.473 20.4035 13.9343 20.7037 15.0388 21.2248C15.4692 21.4287 15.8601 21.6723 16.1716 21.9498C16.1716 21.6496 16.2169 21.3268 16.3075 21.0889C15.8034 20.6131 15.4862 20.0354 15.4862 19.3783C15.4862 18.4664 16.0923 17.7131 16.9702 17.1694C16.9702 16.9088 17.0212 16.6596 17.1118 16.4217C16.5398 15.9289 16.1716 15.3172 16.1716 14.6035C16.1716 14.1561 16.3189 13.7483 16.5681 13.3801C16.3189 13.0176 16.1716 12.6098 16.1716 12.1623C16.1716 11.9414 16.2056 11.7375 16.2679 11.5393C15.7185 11.0522 15.373 10.4518 15.373 9.76076C15.373 9.07541 15.7128 8.48068 16.2565 7.99924C15.9224 7.73869 15.5655 7.51779 15.186 7.34787ZM21.4958 7.47815C20.0231 7.47815 18.6921 7.78967 17.7802 8.24846C16.8626 8.70725 16.4321 9.27365 16.4321 9.76076C16.4321 10.2535 16.8626 10.8199 17.7802 11.2787C18.6921 11.7375 20.0231 12.049 21.4958 12.049C22.1358 12.049 22.7419 11.9867 23.3026 11.8848V10.9219C24.0899 10.8029 24.7413 10.5877 25.1605 10.3102V11.3071C25.8685 11.1031 26.5482 10.3498 26.5651 9.76076C26.5651 9.27365 26.1347 8.70725 25.2171 8.24846C24.2995 7.78967 22.9741 7.47815 21.4958 7.47815ZM26.9616 11.3127C26.7747 11.511 26.5538 11.6979 26.3046 11.8678L26.3159 13.5104C27.0296 13.0856 27.3638 12.5928 27.3638 12.1623C27.3638 11.8904 27.2335 11.5959 26.9616 11.3127ZM17.2308 12.185C17.2478 12.6721 17.6782 13.2215 18.5788 13.6746C19.4964 14.1391 20.8218 14.4449 22.3001 14.4449C23.2233 14.4449 24.0899 14.3203 24.8319 14.1164L24.8716 12.5758C23.8974 12.9156 22.7419 13.1026 21.4958 13.1026C19.8815 13.1026 18.4146 12.7797 17.3044 12.2246C17.2761 12.2133 17.2534 12.1963 17.2308 12.185ZM17.344 14.1561C17.2648 14.309 17.2308 14.4619 17.2308 14.6035C17.2308 15.0963 17.6612 15.6627 18.5788 16.1215C19.4964 16.5803 20.8218 16.8862 22.3001 16.8862C23.0478 16.8862 23.7558 16.8125 24.3958 16.6709V15.3115C23.7388 15.4362 23.0364 15.4985 22.3001 15.4985C20.6802 15.4985 19.2132 15.1813 18.103 14.6205C17.8255 14.4846 17.5706 14.326 17.344 14.1561ZM27.2505 14.1561C26.905 14.3996 26.6048 14.5809 26.2536 14.7338V15.9969C27.0069 15.5608 27.3638 15.051 27.3638 14.6035C27.3638 14.4619 27.3298 14.309 27.2505 14.1561ZM27.6753 16.2404C27.562 16.3537 27.4374 16.4613 27.3015 16.569V18.4041C27.8849 18.0076 28.1681 17.5715 28.1681 17.175C28.1681 16.8748 28.0038 16.552 27.6753 16.2404ZM18.0407 17.0334C18.0351 17.0844 18.0294 17.1297 18.0294 17.175C18.0294 17.6678 18.4599 18.2285 19.3774 18.6873C20.295 19.1518 21.6261 19.4576 23.0987 19.4576C23.9427 19.4576 24.747 19.3557 25.4437 19.1858V17.4922C24.5204 17.7867 23.4499 17.9453 22.3001 17.9453C20.6802 17.9453 19.2132 17.6225 18.103 17.0674C18.0804 17.0561 18.0634 17.0447 18.0407 17.0334ZM17.2704 18.2455C16.7776 18.6137 16.5454 19.0158 16.5454 19.3783C16.5454 19.8711 16.9759 20.4319 17.8935 20.8963C18.811 21.3551 20.1364 21.661 21.6148 21.661C22.1528 21.661 22.6739 21.6213 23.161 21.5477V20.5168H23.0987C21.4788 20.5168 20.0118 20.194 18.9017 19.6332C18.1937 19.282 17.6046 18.8119 17.2704 18.2455ZM26.4745 19.9787C26.0271 20.1373 25.5399 20.2676 25.0189 20.3526V21.0379C25.1265 20.9926 25.2341 20.9473 25.336 20.8963C25.8911 20.6131 26.2649 20.2959 26.4745 19.9787ZM26.9956 21.0096C26.7804 21.2248 26.5312 21.4174 26.2536 21.593V23.2129C27.0069 22.7824 27.3638 22.2727 27.3638 21.8252C27.3638 21.5647 27.2448 21.2815 26.9956 21.0096ZM7.24502 21.1682C6.66729 21.1738 6.04424 21.2475 5.39854 21.4004C4.10657 21.7006 2.99584 22.25 2.27084 22.8561C1.54584 23.4565 1.26264 24.0682 1.3476 24.5043C1.43256 24.9404 1.88002 25.3426 2.75229 25.5748C3.62172 25.8014 4.8378 25.8127 6.1292 25.5125C6.6503 25.3879 7.13741 25.2293 7.58487 25.0424V23.8699C8.41182 23.5018 9.0292 23.06 9.30674 22.6295V24.0115C9.99209 23.4225 10.2583 22.8334 10.179 22.4029C10.0997 21.9668 9.64659 21.5647 8.77432 21.3381C8.33819 21.2248 7.81709 21.1625 7.24502 21.1682ZM10.904 21.4627C11.0569 21.6836 11.1646 21.9328 11.2212 22.2104C11.2835 22.5502 11.2552 22.8787 11.1532 23.2016C11.714 23.3488 12.2237 23.5471 12.6655 23.7963C12.9148 23.9322 13.147 24.0965 13.3509 24.2664C13.8606 24.1475 14.2911 23.9776 14.597 23.7737V24.9404C15.5089 24.51 15.928 23.9832 15.928 23.5641C15.928 23.1393 15.5089 22.6125 14.5913 22.182C13.6794 21.7572 12.3653 21.4684 10.904 21.4627ZM17.2364 21.7459C17.2308 21.7686 17.2308 21.7969 17.2308 21.8252C17.2308 22.318 17.6612 22.8787 18.5788 23.3432C19.4964 23.802 20.8218 24.1078 22.3001 24.1078C23.0478 24.1078 23.7558 24.0285 24.3958 23.8926V22.369C23.5575 22.5955 22.6116 22.7201 21.6148 22.7201C19.9948 22.7201 18.5278 22.3973 17.4177 21.8422C17.3554 21.8082 17.2931 21.7742 17.2364 21.7459ZM17.395 23.8586C17.2817 24.0455 17.2308 24.2268 17.2308 24.4024C17.2308 24.8951 17.6612 25.4559 18.5788 25.9203C19.4964 26.3791 20.8218 26.685 22.3001 26.685C23.0478 26.685 23.7558 26.6057 24.3958 26.4697V24.9744C23.7388 25.099 23.0364 25.167 22.3001 25.167C20.6802 25.167 19.2132 24.8442 18.103 24.2834C17.8482 24.1588 17.6103 24.0172 17.395 23.8586ZM27.1995 23.8586C26.871 24.0795 26.5821 24.2551 26.2536 24.3967V25.7901C27.0069 25.3596 27.3638 24.8498 27.3638 24.4024C27.3638 24.2268 27.3128 24.0455 27.1995 23.8586ZM10.6265 24.1645C10.4282 24.4137 10.196 24.6516 9.93545 24.8668C9.05186 25.6088 7.80577 26.2092 6.36709 26.5434C5.85393 26.6623 5.34416 26.736 4.85479 26.7756C5.03604 27.0758 5.35493 27.3703 5.82164 27.6309C6.59366 28.067 7.72647 28.3615 8.98389 28.3615C9.55596 28.3615 10.0997 28.2992 10.5981 28.1916V27.0135C11.3798 26.8946 12.0368 26.6793 12.456 26.4018V27.444C13.0224 27.0475 13.2942 26.6 13.2942 26.1752C13.2942 25.6824 12.9261 25.1557 12.1501 24.7195C11.731 24.4873 11.2099 24.2947 10.6265 24.1645Z" fill="#001061"/>
</svg>
