<svg width="31" height="30" viewBox="0 0 31 30" fill="none" xmlns="http://www.w3.org/2000/svg">
<rect x="0.413208" y="0.756592" width="29.6736" height="28.4866" rx="14.2433" fill="#001061"/>
<path d="M15.2499 26.7909C12.8207 26.7909 10.446 26.0994 8.42619 24.8038C6.40636 23.5081 4.8321 21.6666 3.90248 19.5121C2.97285 17.3575 2.72962 14.9867 3.20354 12.6995C3.67746 10.4123 4.84724 8.31129 6.56496 6.66227C8.28268 5.01326 10.4712 3.89027 12.8537 3.43531C15.2363 2.98035 17.7059 3.21385 19.9502 4.10629C22.1945 4.99873 24.1127 6.51002 25.4623 8.44905C26.8119 10.3881 27.5323 12.6678 27.5323 14.9998C27.5287 18.126 26.2335 21.1231 23.9309 23.3336C21.6283 25.5441 18.5063 26.7875 15.2499 26.7909ZM15.2499 4.39569C13.0652 4.39569 10.9296 5.01761 9.1131 6.18281C7.29659 7.34801 5.8808 9.00415 5.04476 10.9418C4.20871 12.8795 3.98997 15.0116 4.41618 17.0686C4.84239 19.1256 5.89442 21.0151 7.43923 22.4981C8.98403 23.9811 10.9522 24.9911 13.095 25.4002C15.2377 25.8094 17.4586 25.5994 19.477 24.7968C21.4954 23.9942 23.2206 22.635 24.4343 20.8912C25.6481 19.1473 26.2959 17.0971 26.2959 14.9998C26.2926 12.1884 25.1278 9.49302 23.057 7.50504C20.9862 5.51706 18.1785 4.39883 15.2499 4.39569Z" fill="#001061"/>
<path d="M19.7456 17.503C19.7428 18.3831 19.3774 19.2265 18.7291 19.8488C18.0809 20.4712 17.2024 20.8219 16.2856 20.8246V22.502C16.2856 22.7222 16.1945 22.9334 16.0323 23.0891C15.8701 23.2449 15.65 23.3323 15.4206 23.3323C15.1912 23.3323 14.9712 23.2449 14.809 23.0891C14.6468 22.9334 14.5556 22.7222 14.5556 22.502V20.8246H12.3932C12.1638 20.8246 11.9438 20.7371 11.7815 20.5814C11.6193 20.4256 11.5282 20.2144 11.5282 19.9942C11.5282 19.774 11.6193 19.5627 11.7815 19.407C11.9438 19.2513 12.1638 19.1638 12.3932 19.1638H16.2856C16.7444 19.1638 17.1845 18.9888 17.5089 18.6774C17.8333 18.3659 18.0156 17.9435 18.0156 17.503C18.0156 17.0626 17.8333 16.6401 17.5089 16.3287C17.1845 16.0172 16.7444 15.8423 16.2856 15.8423H14.5556C13.638 15.8423 12.758 15.4923 12.1091 14.8694C11.4602 14.2465 11.0957 13.4016 11.0957 12.5207C11.0957 11.6398 11.4602 10.7949 12.1091 10.172C12.758 9.54912 13.638 9.19917 14.5556 9.19917V7.52179C14.5556 7.30156 14.6468 7.09035 14.809 6.93462C14.9712 6.77889 15.1912 6.69141 15.4206 6.69141C15.65 6.69141 15.8701 6.77889 16.0323 6.93462C16.1945 7.09035 16.2856 7.30156 16.2856 7.52179V9.19917H18.4481C18.6775 9.19917 18.8975 9.28666 19.0597 9.44238C19.2219 9.59811 19.3131 9.80932 19.3131 10.0296C19.3131 10.2498 19.2219 10.461 19.0597 10.6167C18.8975 10.7725 18.6775 10.8599 18.4481 10.8599H14.5556C14.0968 10.8599 13.6568 11.0349 13.3324 11.3464C13.0079 11.6578 12.8257 12.0803 12.8257 12.5207C12.8257 12.9612 13.0079 13.3836 13.3324 13.6951C13.6568 14.0065 14.0968 14.1815 14.5556 14.1815H16.2856C17.2024 14.1841 18.0809 14.5349 18.7291 15.1572C19.3774 15.7796 19.7428 16.6229 19.7456 17.503Z" fill="white"/>
</svg>
