<svg width="30" height="29" viewBox="0 0 30 29" fill="none" xmlns="http://www.w3.org/2000/svg">
<path fill-rule="evenodd" clip-rule="evenodd" d="M10.4688 8.15625C10.4688 6.95449 10.9461 5.80195 11.7959 4.95217C12.6457 4.1024 13.7982 3.625 15 3.625C16.2018 3.625 17.3543 4.1024 18.2041 4.95217C19.0539 5.80195 19.5312 6.95449 19.5312 8.15625C19.5312 9.35801 19.0539 10.5106 18.2041 11.3603C17.3543 12.2101 16.2018 12.6875 15 12.6875C13.7982 12.6875 12.6457 12.2101 11.7959 11.3603C10.9461 10.5106 10.4688 9.35801 10.4688 8.15625ZM19.5312 11.7812C19.5312 10.8198 19.9132 9.89781 20.593 9.21799C21.2728 8.53817 22.1948 8.15625 23.1562 8.15625C24.1177 8.15625 25.0397 8.53817 25.7195 9.21799C26.3993 9.89781 26.7812 10.8198 26.7812 11.7812C26.7812 12.7427 26.3993 13.6647 25.7195 14.3445C25.0397 15.0243 24.1177 15.4062 23.1562 15.4062C22.1948 15.4062 21.2728 15.0243 20.593 14.3445C19.9132 13.6647 19.5312 12.7427 19.5312 11.7812ZM3.21875 11.7812C3.21875 10.8198 3.60067 9.89781 4.28049 9.21799C4.96031 8.53817 5.88234 8.15625 6.84375 8.15625C7.80516 8.15625 8.72719 8.53817 9.40701 9.21799C10.0868 9.89781 10.4688 10.8198 10.4688 11.7812C10.4688 12.7427 10.0868 13.6647 9.40701 14.3445C8.72719 15.0243 7.80516 15.4062 6.84375 15.4062C5.88234 15.4062 4.96031 15.0243 4.28049 14.3445C3.60067 13.6647 3.21875 12.7427 3.21875 11.7812ZM8.12458 18.2676C8.86146 17.1122 9.87777 16.1613 11.0795 15.5028C12.2813 14.8442 13.6297 14.4994 15 14.5C16.1477 14.4989 17.2827 14.7403 18.3306 15.2083C19.3786 15.6762 20.3159 16.3603 21.0812 17.2156C21.8465 18.0709 22.4225 19.0782 22.7716 20.1715C23.1206 21.2648 23.2348 22.4196 23.1067 23.5601C23.091 23.7018 23.0422 23.8378 22.9641 23.957C22.886 24.0763 22.7808 24.1754 22.6572 24.2464C20.327 25.5835 17.6865 26.2851 15 26.2812C12.3134 26.2855 9.67286 25.5838 7.34279 24.2464C7.21917 24.1754 7.11403 24.0763 7.03593 23.957C6.95782 23.8378 6.90895 23.7018 6.89329 23.5601C6.69036 21.7072 7.12464 19.8406 8.12458 18.2676Z" fill="#001061"/>
<path d="M6.64073 17.2236C5.44901 19.0632 4.89378 21.2429 5.06023 23.4284C4.33463 23.3184 3.62099 23.1404 2.92873 22.8968L2.78977 22.8484C2.66579 22.8044 2.55722 22.7254 2.47723 22.621C2.39724 22.5165 2.34924 22.3911 2.33906 22.26L2.32698 22.1138C2.27816 21.5071 2.35206 20.8969 2.54424 20.3194C2.73642 19.742 3.04296 19.2092 3.44556 18.7528C3.84816 18.2964 4.33857 17.9258 4.88753 17.6631C5.43649 17.4003 6.03275 17.2509 6.64073 17.2236ZM24.9397 23.4284C25.1062 21.2429 24.5509 19.0632 23.3592 17.2236C23.9672 17.2509 24.5635 17.4003 25.1124 17.6631C25.6614 17.9258 26.1518 18.2964 26.5544 18.7528C26.957 19.2092 27.2635 19.742 27.4557 20.3194C27.6479 20.8969 27.7218 21.5071 27.673 22.1138L27.6609 22.26C27.6505 22.3909 27.6024 22.5161 27.5224 22.6203C27.4424 22.7245 27.334 22.8033 27.2102 22.8472L27.0712 22.8955C26.3861 23.1372 25.6744 23.3173 24.9397 23.4284Z" fill="#001061"/>
</svg>
