<svg width="20" height="20" viewBox="0 0 20 20" fill="none" xmlns="http://www.w3.org/2000/svg">
<g clip-path="url(#clip0_5_1569)">
<path d="M14.1239 10.3977C13.5851 13.9614 14.782 15.3972 14.782 15.3972L3.17837 12.3385C3.17837 12.3385 5.47477 11.4733 6.74362 6.65969C7.03198 5.56573 7.71604 4.62364 8.64518 4.04123C9.57497 3.45899 10.674 3.28334 11.699 3.55352C11.9163 3.61079 12.1271 3.68705 12.3284 3.78147M9.58564 16.0958C9.42089 16.2615 9.21547 16.3809 8.98998 16.4422C8.76449 16.5035 8.52686 16.5044 8.30091 16.4448C8.07496 16.3852 7.86865 16.2673 7.70265 16.1029C7.53666 15.9384 7.41683 15.7332 7.35517 15.5078M15.192 8.61089C15.7049 8.7461 16.2505 8.67201 16.7088 8.40493C17.1671 8.13785 17.5005 7.69965 17.6357 7.18674C17.7709 6.67383 17.6968 6.12821 17.4297 5.66993C17.1627 5.21164 16.7245 4.87822 16.2116 4.74302C15.6986 4.60781 15.153 4.6819 14.6947 4.94898C14.2365 5.21606 13.903 5.65426 13.7678 6.16717C13.6326 6.68008 13.7067 7.2257 13.9738 7.68399C14.2409 8.14227 14.6791 8.47569 15.192 8.61089Z" stroke="#9E9E9E" stroke-width="1.5" stroke-linecap="round" stroke-linejoin="round"/>
</g>
<defs>
<clipPath id="clip0_5_1569">
<rect width="16" height="16" fill="white" transform="translate(4.30322 0.225098) rotate(14.7672)"/>
</clipPath>
</defs>
</svg>
