<svg xmlns="http://www.w3.org/2000/svg" version="1.1" xmlns:xlink="http://www.w3.org/1999/xlink" width="512" height="512" x="0" y="0" viewBox="0 0 100 100" style="enable-background:new 0 0 512 512" xml:space="preserve" class=""><g><path d="M70 36.62v56.89a1.5 1.5 0 0 0 1.5 1.5h19.74a1.5 1.5 0 0 0 1.5-1.5V36.62a1.5 1.5 0 0 0-1.5-1.5H71.45a1.5 1.5 0 0 0-1.45 1.5Zm3 1.5h16.74V92H73Zm-32.9 9.42A1.5 1.5 0 0 0 38.6 49v44.51A1.51 1.51 0 0 0 40.1 95h19.8a1.51 1.51 0 0 0 1.5-1.5V49a1.5 1.5 0 0 0-1.5-1.5ZM58.4 92H41.6V50.54h16.8ZM8.76 95h19.79a1.5 1.5 0 0 0 1.5-1.5V66.84a1.5 1.5 0 0 0-1.5-1.5H8.76a1.5 1.5 0 0 0-1.5 1.5v26.67A1.5 1.5 0 0 0 8.76 95Zm1.5-26.67h16.79V92H10.26ZM14.17 54a1.49 1.49 0 0 0 1.2.6 1.51 1.51 0 0 0 .9-.29l29.35-21.9 5.46 8.14a1.46 1.46 0 0 0 1 .65 1.48 1.48 0 0 0 1.18-.34l23.95-20.19 5 5a1.5 1.5 0 0 0 2.57-1.05V6.49a1.51 1.51 0 0 0-.43-1.06A1.53 1.53 0 0 0 83.32 5H65.19a1.5 1.5 0 0 0-1.38.93 1.48 1.48 0 0 0 .32 1.63L69 12.4 54.44 24.66l-5.09-7.59a1.47 1.47 0 0 0-1-.64 1.52 1.52 0 0 0-1.15.27L9.31 44.94a1.51 1.51 0 0 0-.59 1A1.58 1.58 0 0 0 9 47Zm33.57-33.95 5.14 7.67a1.51 1.51 0 0 0 1 .65 1.46 1.46 0 0 0 1.21-.37l17-14.39a1.52 1.52 0 0 0 .53-1.09 1.49 1.49 0 0 0-.44-1.12L68.81 8h13v13l-3.44-3.45a1.48 1.48 0 0 0-2-.08l-23.69 20-5.41-8.06a1.49 1.49 0 0 0-1-.64 1.52 1.52 0 0 0-1.15.27L15.68 51l-3.37-4.52Z" fill="#d1651a" opacity="0.7607843137254902" data-original="#000000" class=""></path></g></svg>