<svg xmlns="http://www.w3.org/2000/svg" version="1.1" xmlns:xlink="http://www.w3.org/1999/xlink" width="512" height="512" x="0" y="0" viewBox="0 0 128 128" style="enable-background:new 0 0 512 512" xml:space="preserve" class=""><g><path d="M69.826 91.173c1.841.01 3.333-1.053 4.714-2.146a6.984 6.984 0 0 1 1.86-1.211 7.151 7.151 0 0 1 2.273.009 8.375 8.375 0 0 0 4.44-.386 8.449 8.449 0 0 0 3.223-3.13 7.016 7.016 0 0 1 1.454-1.702 7.023 7.023 0 0 1 2.168-.627 8.417 8.417 0 0 0 4.164-1.628 8.426 8.426 0 0 0 2.205-3.896 7.026 7.026 0 0 1 .925-2.054A6.983 6.983 0 0 1 99.15 73.2a8.444 8.444 0 0 0 3.55-2.739 8.41 8.41 0 0 0 1.017-4.347 7.049 7.049 0 0 1 .313-2.243 7 7 0 0 1 1.471-1.674 8.447 8.447 0 0 0 2.644-3.648 8.372 8.372 0 0 0-.254-4.44 7.083 7.083 0 0 1-.336-2.259 6.949 6.949 0 0 1 .93-2.002 8.495 8.495 0 0 0 1.513-4.26 8.495 8.495 0 0 0-1.513-4.261 6.916 6.916 0 0 1-.93-2.002 7.05 7.05 0 0 1 .336-2.26 8.372 8.372 0 0 0 .254-4.44 8.447 8.447 0 0 0-2.644-3.647 6.991 6.991 0 0 1-1.47-1.673 7.049 7.049 0 0 1-.313-2.243 8.417 8.417 0 0 0-1.019-4.349 8.448 8.448 0 0 0-3.55-2.738 7.007 7.007 0 0 1-1.897-1.202 7.015 7.015 0 0 1-.924-2.054 8.451 8.451 0 0 0-2.204-3.895 8.421 8.421 0 0 0-4.163-1.628 7.023 7.023 0 0 1-2.171-.628 7.037 7.037 0 0 1-1.454-1.701 8.449 8.449 0 0 0-3.222-3.132 8.413 8.413 0 0 0-4.442-.385 7.148 7.148 0 0 1-2.272.01 6.981 6.981 0 0 1-1.859-1.211 8.477 8.477 0 0 0-3.997-2.1 8.419 8.419 0 0 0-4.342.883A7.09 7.09 0 0 1 64 1.587a7.092 7.092 0 0 1-2.203-.655A8.4 8.4 0 0 0 57.456.05a8.472 8.472 0 0 0-3.997 2.099 6.953 6.953 0 0 1-1.859 1.21 7.038 7.038 0 0 1-2.273-.008 8.41 8.41 0 0 0-4.441.386 8.446 8.446 0 0 0-3.223 3.13 7.008 7.008 0 0 1-1.453 1.702 7.03 7.03 0 0 1-2.169.627 8.422 8.422 0 0 0-4.164 1.628 8.437 8.437 0 0 0-2.204 3.895 7.033 7.033 0 0 1-.925 2.055 7.006 7.006 0 0 1-1.897 1.202 8.446 8.446 0 0 0-3.55 2.737 8.413 8.413 0 0 0-1.019 4.35 7.047 7.047 0 0 1-.314 2.242 6.993 6.993 0 0 1-1.47 1.675 8.461 8.461 0 0 0-2.644 3.647 8.383 8.383 0 0 0 .255 4.44 7.094 7.094 0 0 1 .335 2.259 6.944 6.944 0 0 1-.93 2.002 8.495 8.495 0 0 0-1.512 4.26 8.495 8.495 0 0 0 1.512 4.261 6.944 6.944 0 0 1 .93 2.002 7.094 7.094 0 0 1-.335 2.26 8.383 8.383 0 0 0-.255 4.44 8.454 8.454 0 0 0 2.645 3.647 6.982 6.982 0 0 1 1.47 1.673 7.056 7.056 0 0 1 .313 2.242 8.414 8.414 0 0 0 1.018 4.35 8.44 8.44 0 0 0 3.551 2.738 6.999 6.999 0 0 1 1.896 1.202 7.02 7.02 0 0 1 .925 2.053 8.437 8.437 0 0 0 2.204 3.896 8.416 8.416 0 0 0 4.163 1.628 7.011 7.011 0 0 1 2.17.628 7.017 7.017 0 0 1 1.454 1.701 8.455 8.455 0 0 0 3.223 3.132 8.4 8.4 0 0 0 4.442.385 7.117 7.117 0 0 1 2.271-.01 6.992 6.992 0 0 1 1.86 1.21 8.466 8.466 0 0 0 3.996 2.1 8.324 8.324 0 0 0 4.342-.882A7.092 7.092 0 0 1 64 89.587a7.09 7.09 0 0 1 2.202.656 9.986 9.986 0 0 0 3.624.93zm-9.528-4.638a5.616 5.616 0 0 1-2.278.63 5.773 5.773 0 0 1-2.079-1.275 9.722 9.722 0 0 0-3.216-1.913 9.877 9.877 0 0 0-3.79-.133 5.802 5.802 0 0 1-2.386-.042 5.766 5.766 0 0 1-1.617-1.8 9.798 9.798 0 0 0-2.557-2.758 9.85 9.85 0 0 0-3.588-1.195 5.775 5.775 0 0 1-2.29-.72 5.779 5.779 0 0 1-1.04-2.17 9.817 9.817 0 0 0-1.688-3.378 9.797 9.797 0 0 0-3.1-2.145 5.775 5.775 0 0 1-2.006-1.34 5.761 5.761 0 0 1-.385-2.365 9.85 9.85 0 0 0-.673-3.725 9.763 9.763 0 0 0-2.358-2.915 5.767 5.767 0 0 1-1.555-1.867 5.759 5.759 0 0 1 .3-2.357 9.89 9.89 0 0 0 .412-3.781 9.706 9.706 0 0 0-1.433-3.45 5.794 5.794 0 0 1-.97-2.249 5.794 5.794 0 0 1 .97-2.249 9.706 9.706 0 0 0 1.433-3.449 9.89 9.89 0 0 0-.412-3.781 5.769 5.769 0 0 1-.3-2.357 5.79 5.79 0 0 1 1.555-1.867 9.758 9.758 0 0 0 2.359-2.916 9.859 9.859 0 0 0 .672-3.725 5.77 5.77 0 0 1 .385-2.364 5.781 5.781 0 0 1 2.005-1.34 9.777 9.777 0 0 0 3.102-2.146 9.806 9.806 0 0 0 1.688-3.379 5.781 5.781 0 0 1 1.039-2.17 5.786 5.786 0 0 1 2.291-.72 9.85 9.85 0 0 0 3.588-1.193 9.786 9.786 0 0 0 2.556-2.759 5.773 5.773 0 0 1 1.617-1.798 5.748 5.748 0 0 1 2.386-.043 9.842 9.842 0 0 0 3.79-.134 9.739 9.739 0 0 0 3.216-1.912 5.793 5.793 0 0 1 2.08-1.276 5.826 5.826 0 0 1 2.276.631A9.914 9.914 0 0 0 64 5.587a9.906 9.906 0 0 0 3.702-.947 5.567 5.567 0 0 1 2.278-.63 5.769 5.769 0 0 1 2.079 1.276 9.743 9.743 0 0 0 3.215 1.912 9.861 9.861 0 0 0 3.79.133 5.818 5.818 0 0 1 2.386.042 5.765 5.765 0 0 1 1.617 1.8 9.779 9.779 0 0 0 2.558 2.758 9.845 9.845 0 0 0 3.588 1.195 5.778 5.778 0 0 1 2.29.72 5.785 5.785 0 0 1 1.04 2.17 9.816 9.816 0 0 0 1.688 3.378 9.791 9.791 0 0 0 3.1 2.145 5.782 5.782 0 0 1 2.005 1.34 5.761 5.761 0 0 1 .386 2.365 9.85 9.85 0 0 0 .673 3.725 9.763 9.763 0 0 0 2.358 2.915 5.78 5.78 0 0 1 1.555 1.867 5.77 5.77 0 0 1-.3 2.357 9.888 9.888 0 0 0-.413 3.781 9.691 9.691 0 0 0 1.433 3.45 5.794 5.794 0 0 1 .97 2.248 5.794 5.794 0 0 1-.97 2.25 9.691 9.691 0 0 0-1.433 3.449 9.888 9.888 0 0 0 .413 3.78 5.77 5.77 0 0 1 .3 2.358 5.78 5.78 0 0 1-1.555 1.866 9.743 9.743 0 0 0-2.36 2.916 9.855 9.855 0 0 0-.672 3.727 5.774 5.774 0 0 1-.385 2.363 5.772 5.772 0 0 1-2.005 1.34 9.783 9.783 0 0 0-3.101 2.146 9.808 9.808 0 0 0-1.687 3.378 5.77 5.77 0 0 1-1.041 2.17 5.778 5.778 0 0 1-2.29.72 9.843 9.843 0 0 0-3.588 1.194 9.788 9.788 0 0 0-2.557 2.759A5.773 5.773 0 0 1 81.45 83.8a5.777 5.777 0 0 1-2.384.043 9.86 9.86 0 0 0-3.791.134 9.741 9.741 0 0 0-3.216 1.912 5.768 5.768 0 0 1-2.078 1.275 5.567 5.567 0 0 1-2.278-.63A9.906 9.906 0 0 0 64 85.587a9.909 9.909 0 0 0-3.702.948z" fill="#d1651a" opacity="1" data-original="#000000" class=""></path><path d="M85.999 45.794a21.999 21.999 0 1 0-22 22 22.024 22.024 0 0 0 22-22zm-39.998 0a18 18 0 1 1 17.999 18 18.02 18.02 0 0 1-18-18z" fill="#d1651a" opacity="1" data-original="#000000" class=""></path><path d="M66.93 55.425a2.917 2.917 0 0 0 4.292-3.022l-.596-3.667 2.545-2.62a2.92 2.92 0 0 0-1.646-4.922l-3.39-.52-1.495-3.198a2.914 2.914 0 0 0-5.281 0l-1.494 3.197-3.39.521a2.92 2.92 0 0 0-1.648 4.922l2.546 2.62-.596 3.667a2.9 2.9 0 0 0 1.205 2.86 2.936 2.936 0 0 0 3.087.162L64 53.798zm-5.847-4.582.4-2.459a2 2 0 0 0-.54-1.713l-1.79-1.841 2.375-.365a2 2 0 0 0 1.508-1.13L64 41.272l.965 2.063a1.996 1.996 0 0 0 1.507 1.13l2.374.364-1.789 1.842a2.004 2.004 0 0 0-.54 1.713l.4 2.458-1.946-1.08a2.006 2.006 0 0 0-1.942 0zM57.393 95.54a209.538 209.538 0 0 1-15.483 27.987 344.302 344.302 0 0 1-6.372-10.752 4.518 4.518 0 0 0-4.687-1.952c-4.77.855-9.622 1.552-14.454 2.074A197.5 197.5 0 0 0 34.47 85.614a13.54 13.54 0 0 1-3.441-2.049 194.112 194.112 0 0 1-19.386 28.88 2.741 2.741 0 0 0-.31 3.07 3.21 3.21 0 0 0 3.188 1.596 214.306 214.306 0 0 0 17.036-2.35c.066-.012.477-.056.506-.006a347.748 347.748 0 0 0 7.037 11.828 3.137 3.137 0 0 0 2.66 1.417 3.537 3.537 0 0 0 2.981-1.498 213.096 213.096 0 0 0 17.355-31.674 11.071 11.071 0 0 1-4.702.713z" fill="#d1651a" opacity="1" data-original="#000000" class=""></path><path d="M43.791 106.525c.985-1.435 1.94-3.176 1.98-3.249a2 2 0 1 0-3.508-1.922c-.008.017-.9 1.641-1.77 2.91a2 2 0 1 0 3.298 2.261zM33.854 103.334a2.026 2.026 0 0 0 2.78-.519c.985-1.437 1.94-3.176 1.98-3.249a2 2 0 1 0-3.508-1.922c-.009.016-.898 1.636-1.771 2.91a2 2 0 0 0 .52 2.78zM116.36 112.449a194.184 194.184 0 0 1-19.388-28.884c-.472 1.039-3.385 2.151-3.44 2.05a197.58 197.58 0 0 0 18.07 27.282 210.38 210.38 0 0 1-14.454-2.074 4.417 4.417 0 0 0-4.687 1.955 344.91 344.91 0 0 1-6.372 10.75 209.5 209.5 0 0 1-15.486-27.994 11.05 11.05 0 0 1-4.699-.707A213.074 213.074 0 0 0 83.258 126.5a3.507 3.507 0 0 0 2.927 1.5 3.2 3.2 0 0 0 2.718-1.421 325.572 325.572 0 0 0 6.981-11.754.835.835 0 0 1 .56-.064 214.386 214.386 0 0 0 17.036 2.35 3.205 3.205 0 0 0 3.187-1.597 2.74 2.74 0 0 0-.306-3.065z" fill="#d1651a" opacity="1" data-original="#000000" class=""></path><path d="M85.736 101.354a2 2 0 0 0-3.507 1.921c.04.074.994 1.814 1.979 3.25a2.06 2.06 0 0 0 2.78.519 2 2 0 0 0 .519-2.78c-.87-1.27-1.762-2.893-1.77-2.91zM90.18 96.851a2 2 0 0 0-.794 2.715c.04.073.994 1.812 1.98 3.25a2.036 2.036 0 0 0 2.78.518 2 2 0 0 0 .518-2.78c-.869-1.27-1.761-2.893-1.77-2.91a2 2 0 0 0-2.715-.793z" fill="#d1651a" opacity="1" data-original="#000000" class=""></path><circle cx="63.91" cy="14.794" r="2" fill="#d1651a" opacity="1" data-original="#000000" class=""></circle><circle cx="71.924" cy="15.815" r="2" fill="#d1651a" opacity="1" data-original="#000000" class=""></circle><circle cx="79.41" cy="18.89" r="2" fill="#d1651a" opacity="1" data-original="#000000" class=""></circle><circle cx="85.842" cy="23.794" r="2" fill="#d1651a" opacity="1" data-original="#000000" class=""></circle><circle cx="90.793" cy="30.194" r="2" fill="#d1651a" opacity="1" data-original="#000000" class=""></circle><circle cx="93.918" cy="37.653" r="2" fill="#d1651a" opacity="1" data-original="#000000" class=""></circle><circle cx="94.998" cy="45.729" r="2" fill="#d1651a" opacity="1" data-original="#000000" class=""></circle><circle cx="93.951" cy="53.813" r="2" fill="#d1651a" opacity="1" data-original="#000000" class=""></circle><circle cx="90.855" cy="61.284" r="2" fill="#d1651a" opacity="1" data-original="#000000" class=""></circle><circle cx="85.925" cy="67.704" r="2" fill="#d1651a" opacity="1" data-original="#000000" class=""></circle><circle cx="79.517" cy="72.634" r="2" fill="#d1651a" opacity="1" data-original="#000000" class=""></circle><circle cx="72.049" cy="75.735" r="2" fill="#d1651a" opacity="1" data-original="#000000" class=""></circle><circle cx="64.03" cy="76.794" r="2" fill="#d1651a" opacity="1" data-original="#000000" class=""></circle><circle cx="56.013" cy="75.735" r="2" fill="#d1651a" opacity="1" data-original="#000000" class=""></circle><circle cx="48.535" cy="72.665" r="2" fill="#d1651a" opacity="1" data-original="#000000" class=""></circle><circle cx="42.115" cy="67.746" r="2" fill="#d1651a" opacity="1" data-original="#000000" class=""></circle><circle cx="37.173" cy="61.342" r="2" fill="#d1651a" opacity="1" data-original="#000000" class=""></circle><circle cx="34.034" cy="53.873" r="2" fill="#d1651a" opacity="1" data-original="#000000" class=""></circle><circle cx="33.001" cy="45.853" r="2" fill="#d1651a" opacity="1" data-original="#000000" class=""></circle><circle cx="34.034" cy="37.833" r="2" fill="#d1651a" opacity="1" data-original="#000000" class=""></circle><circle cx="37.116" cy="30.354" r="2" fill="#d1651a" opacity="1" data-original="#000000" class=""></circle><circle cx="42.026" cy="23.926" r="2" fill="#d1651a" opacity="1" data-original="#000000" class=""></circle><circle cx="48.425" cy="18.984" r="2" fill="#d1651a" opacity="1" data-original="#000000" class=""></circle><circle cx="55.89" cy="15.863" r="2" fill="#d1651a" opacity="1" data-original="#000000" class=""></circle></g></svg>