<svg width="31" height="28" viewBox="0 0 31 28" fill="none" xmlns="http://www.w3.org/2000/svg">
<path d="M14.8466 3.85188L12.2148 1.22219C11.9065 0.9137 11.5404 0.66904 11.1375 0.502218C10.7346 0.335396 10.3027 0.249688 9.86662 0.250001H2.88387C2.58729 0.249861 2.29357 0.308158 2.01952 0.421562C1.74547 0.534965 1.49644 0.701252 1.28667 0.910923C1.0769 1.12059 0.9105 1.36954 0.796967 1.64354C0.683435 1.91754 0.625 2.21122 0.625 2.50781V10.3438H30.375V6.77056C30.375 6.17175 30.1371 5.59747 29.7137 5.17405C29.2903 4.75063 28.716 4.51275 28.1172 4.51275H16.4435C15.8448 4.51314 15.2704 4.27476 14.8466 3.85188Z" fill="#FFB02E"/>
<path d="M28.1172 27.875H2.88281C2.5872 27.876 2.29429 27.8187 2.02082 27.7065C1.74735 27.5942 1.49867 27.4292 1.289 27.2208C1.07933 27.0124 0.91277 26.7647 0.798838 26.4919C0.684907 26.2192 0.625836 25.9266 0.625 25.631V9.9315C0.625 8.69156 1.63544 7.6875 2.88281 7.6875H28.1172C29.3646 7.6875 30.375 8.69156 30.375 9.9315V25.631C30.3742 25.9266 30.3151 26.2192 30.2012 26.4919C30.0872 26.7647 29.9207 27.0124 29.711 27.2208C29.5013 27.4292 29.2527 27.5942 28.9792 27.7065C28.7057 27.8187 28.4128 27.876 28.1172 27.875Z" fill="#FCD53F"/>
</svg>
