<svg width="37" height="38" viewBox="0 0 37 38" fill="none" xmlns="http://www.w3.org/2000/svg">
<g clip-path="url(#clip0_127_2255)">
<path d="M24.7921 24.871L18.6931 18.772L12.5941 24.871" stroke="black" stroke-opacity="0.4" stroke-width="1.52475" stroke-linecap="round" stroke-linejoin="round"/>
<path d="M18.6931 18.772V32.4947" stroke="#9E9E9E" stroke-width="1.52475" stroke-linecap="round" stroke-linejoin="round"/>
<path d="M31.4857 28.5149C32.9729 27.7042 34.1477 26.4213 34.8248 24.8687C35.5018 23.3161 35.6425 21.5822 35.2247 19.9408C34.807 18.2993 33.8544 16.8437 32.5175 15.8037C31.1806 14.7638 29.5354 14.1986 27.8416 14.1975H25.9204C25.4589 12.4124 24.5987 10.7551 23.4045 9.3503C22.2103 7.94549 20.7131 6.82967 19.0256 6.08675C17.3381 5.34382 15.5041 4.99312 13.6616 5.06101C11.819 5.12889 10.0158 5.6136 8.38754 6.4787C6.75927 7.34379 5.3483 8.56675 4.26071 10.0556C3.17312 11.5445 2.43721 13.2606 2.10831 15.0748C1.7794 16.8891 1.86606 18.7543 2.36177 20.5302C2.85748 22.3061 3.74934 23.9466 4.9703 25.3282" stroke="#9E9E9E" stroke-width="1.52475" stroke-linecap="round" stroke-linejoin="round"/>
<path d="M24.7921 24.871L18.6931 18.772L12.5941 24.871" stroke="#9E9E9E" stroke-width="1.52475" stroke-linecap="round" stroke-linejoin="round"/>
</g>
<defs>
<clipPath id="clip0_127_2255">
<rect width="36.5941" height="36.5941" fill="white" transform="translate(0.39604 0.475098)"/>
</clipPath>
</defs>
</svg>
