<!-- <svg xmlns="http://www.w3.org/2000/svg" version="1.1" xmlns:xlink="http://www.w3.org/1999/xlink" width="512" height="512" x="0" y="0" viewBox="0 0 64 64" style="enable-background:new 0 0 512 512" xml:space="preserve" class=""><g><path d="M59 56.5h-4.14V23.78a1 1 0 0 0-1-1h-6.42a1 1 0 0 0-1 1V56.5h-4.013V30.2a1 1 0 0 0-1-1h-6.42a1 1 0 0 0-1 1v26.3h-4.013V36.723a1 1 0 0 0-1-1h-6.42a1 1 0 0 0-1 1V56.5H17.56V43.041a1 1 0 0 0-1-1h-6.42a1 1 0 0 0-1 1V56.5H5a1 1 0 0 0 0 2c7.5 0 51.19.011 54 0a1 1 0 0 0 0-2Zm-47.86 0V44.041h4.42V56.5Zm12.433 0V37.723h4.42V56.5Zm12.433 0V31.2h4.42v25.3Zm12.433 0V24.78h4.42V56.5ZM9.43 36.885a1.001 1.001 0 0 0 1.23.7c15.835-4.263 30.205-13.899 39.25-27.316l.449 2.109a1 1 0 0 0 1.956-.416l-.944-4.44a1.035 1.035 0 0 0-1.204-.767l-4.422.94a1 1 0 0 0 .416 1.956l2.049-.435c-8.788 12.992-22.724 22.304-38.08 26.44a1 1 0 0 0-.7 1.23Z" fill="#ffffff" opacity="1" data-original="#000000" class=""></path><path d="M17.994 27.5a11.012 11.012 0 0 0 11-11c-.605-14.593-21.398-14.589-22 0a11.012 11.012 0 0 0 11 11Zm0-20a9.01 9.01 0 0 1 9 9c-.473 11.931-17.53 11.928-18 0a9.01 9.01 0 0 1 9-9Z" fill="#ffffff" opacity="1" data-original="#000000" class=""></path><path d="M17.994 20.81a1.657 1.657 0 0 1-1.656-1.655 1 1 0 0 0-2 0 3.649 3.649 0 0 0 2.656 3.499c-.076.72.155 1.462 1 1.484.846-.028 1.074-.755 1-1.484a3.65 3.65 0 0 0-1-7.154 1.655 1.655 0 1 1 1.655-1.655 1 1 0 0 0 2 0 3.649 3.649 0 0 0-2.655-3.499v-.484a1 1 0 0 0-2 0v.484a3.646 3.646 0 0 0 1 7.154 1.655 1.655 0 0 1 0 3.31Z" fill="#ffffff" opacity="1" data-original="#000000" class=""></path></g></svg> -->
<svg xmlns="http://www.w3.org/2000/svg" version="1.1" xmlns:xlink="http://www.w3.org/1999/xlink" width="512" height="512" x="0" y="0" viewBox="0 0 64 64" style="enable-background:new 0 0 512 512" xml:space="preserve" fill-rule="evenodd" class=""><g><path d="M36.66 52A6.004 6.004 0 0 0 31 44H13v-2H0v22h40.56L61 52.196A6.007 6.007 0 0 0 63.2 44a6.007 6.007 0 0 0-8.2-2.196L37.34 52zM13 48v12h26.48L59 48.732c.96-.552 1.28-1.776.73-2.732s-1.77-1.284-2.73-.732L38.41 56H19v-4h12c1.1 0 2-.896 2-2s-.9-2-2-2zM32 0C20.41 0 11 9.41 11 21s9.41 21 21 21 21-9.41 21-21S43.59 0 32 0zm-2 11.083c-2.84.477-5 2.946-5 5.917 0 3.311 2.69 6 6 6h2c1.1 0 2 .896 2 2s-.9 2-2 2h-7v4h4v3h4v-3.083c2.84-.477 5-2.946 5-5.917 0-3.311-2.69-6-6-6h-2c-1.1 0-2-.896-2-2s.9-2 2-2h7v-4h-4V8h-4z" fill="#ffffff" opacity="1" data-original="#000000" class=""></path></g></svg>