<svg xmlns="http://www.w3.org/2000/svg" version="1.1" xmlns:xlink="http://www.w3.org/1999/xlink" width="512" height="512" x="0" y="0" viewBox="0 0 64 64" style="enable-background:new 0 0 512 512" xml:space="preserve" class=""><g><path d="M11 42c-4.473 0-9 1.374-9 4v12c0 2.626 4.527 4 9 4s9-1.374 9-4V46c0-2.626-4.527-4-9-4zm0 18c-4.547 0-7-1.42-7-2v-3.4a15.862 15.862 0 0 0 7 1.4 15.862 15.862 0 0 0 7-1.4V58c0 .58-2.453 2-7 2zm0-6c-4.547 0-7-1.42-7-2v-3.4a15.862 15.862 0 0 0 7 1.4 15.862 15.862 0 0 0 7-1.4V52c0 .58-2.453 2-7 2zm0-6c-4.547 0-7-1.42-7-2s2.453-2 7-2 7 1.42 7 2-2.453 2-7 2zm21-12c-4.473 0-9 1.374-9 4v18c0 2.626 4.527 4 9 4s9-1.374 9-4V40c0-2.626-4.527-4-9-4zm0 24c-4.547 0-7-1.42-7-2v-3.4a15.862 15.862 0 0 0 7 1.4 15.862 15.862 0 0 0 7-1.4V58c0 .58-2.453 2-7 2zm0-6c-4.547 0-7-1.42-7-2v-3.4a15.862 15.862 0 0 0 7 1.4 15.862 15.862 0 0 0 7-1.4V52c0 .58-2.453 2-7 2zm0-6c-4.547 0-7-1.42-7-2v-3.4a15.862 15.862 0 0 0 7 1.4 15.862 15.862 0 0 0 7-1.4V46c0 .58-2.453 2-7 2zm0-6c-4.547 0-7-1.42-7-2s2.453-2 7-2 7 1.42 7 2-2.453 2-7 2zm21-12c-4.473 0-9 1.374-9 4v24c0 2.626 4.527 4 9 4s9-1.374 9-4V34c0-2.626-4.527-4-9-4zm0 2c4.547 0 7 1.42 7 2s-2.453 2-7 2-7-1.42-7-2 2.453-2 7-2zm0 28c-4.547 0-7-1.42-7-2v-3.4a15.862 15.862 0 0 0 7 1.4 15.862 15.862 0 0 0 7-1.4V58c0 .58-2.453 2-7 2zm0-6c-4.547 0-7-1.42-7-2v-3.4a15.862 15.862 0 0 0 7 1.4 15.862 15.862 0 0 0 7-1.4V52c0 .58-2.453 2-7 2zm0-6c-4.547 0-7-1.42-7-2v-3.4a15.862 15.862 0 0 0 7 1.4 15.862 15.862 0 0 0 7-1.4V46c0 .58-2.453 2-7 2zm0-6c-4.547 0-7-1.42-7-2v-3.4a15.862 15.862 0 0 0 7 1.4 15.862 15.862 0 0 0 7-1.4V40c0 .58-2.453 2-7 2zM5.293 32.707a1 1 0 0 1 0-1.414l17.172-17.171a5 5 0 0 1 7.07 0L36 20.586 48.586 8H45a2.002 2.002 0 0 1-2-2V4a2.002 2.002 0 0 1 2-2h11a3.003 3.003 0 0 1 3 3v11a2.002 2.002 0 0 1-2 2h-2a2.002 2.002 0 0 1-2-2v-3.586L39.535 25.878a5 5 0 0 1-7.07 0L26 19.414 9.707 35.707a1 1 0 0 1-1.414-1.414l17-17a1 1 0 0 1 1.414 0l7.172 7.171a3.073 3.073 0 0 0 4.242 0L53.293 9.293A1 1 0 0 1 55 10v6h2V5a1 1 0 0 0-1-1H45v2h6a1 1 0 0 1 .707 1.707l-15 15a1 1 0 0 1-1.414 0l-7.172-7.171a3.073 3.073 0 0 0-4.242 0L6.707 32.707a1 1 0 0 1-1.414 0z" data-name="04-Profit" fill="#000000" opacity="1" data-original="#000000"></path></g></svg>