<svg width="480" height="360" viewBox="0 0 480 360" fill="none" xmlns="http://www.w3.org/2000/svg">
<path d="M280.115 234.087C268.173 242.048 254.302 246.257 240 246.257C225.699 246.257 211.828 242.048 199.886 234.087L3.19594 102.956C2.11013 102.23 1.04442 101.475 0 100.69L0 315.563C0 340.198 19.9922 359.75 44.1872 359.75H435.812C460.447 359.75 479.999 339.758 479.999 315.563V100.689C478.953 101.476 477.885 102.233 476.797 102.96L280.115 234.087Z" fill="white"/>
<path d="M18.7969 79.5544L215.487 210.686C222.933 215.65 231.466 218.132 239.999 218.132C248.533 218.132 257.067 215.649 264.513 210.686L461.203 79.5544C472.973 71.7122 480 58.5872 480 44.4216C480 20.0644 460.184 0.249374 435.828 0.249374H44.1722C19.8159 0.250312 -7.2666e-06 20.0653 -7.2666e-06 44.445C-0.00730908 51.3938 1.70531 58.2364 4.9851 64.3625C8.26489 70.4886 13.0099 75.7077 18.7969 79.5544Z" fill="white"/>
</svg>
