<svg xmlns="http://www.w3.org/2000/svg" version="1.1" xmlns:xlink="http://www.w3.org/1999/xlink" width="512" height="512" x="0" y="0" viewBox="0 0 64 64" style="enable-background:new 0 0 512 512" xml:space="preserve" class=""><g><path fill="#222222" d="M59.46 53a2 2 0 0 1-1.38 2 1.91 1.91 0 0 1-.62.1 2 2 0 0 1-1.69-.93c-.33-.54-8.17-12.46-27.49-13.17v10.24a2 2 0 0 1-3.43 1.4L5.11 32.48a2 2 0 0 1 0-2.8L24.85 9.52a2 2 0 0 1 3.43 1.4v10.42C57.4 23.62 59.44 52.66 59.46 53z" data-name="Arrow" opacity="1" data-original="#222222" class=""></path></g></svg>