<svg xmlns="http://www.w3.org/2000/svg" version="1.1" xmlns:xlink="http://www.w3.org/1999/xlink" width="512" height="512" x="0" y="0" viewBox="0 0 512 512" style="enable-background:new 0 0 512 512" xml:space="preserve" class=""><g><path d="M218.581 473.218C114.691 455.45 35.618 364.956 35.618 256S114.691 56.55 218.581 38.782M218.581 38.782l-22.599 40.112M218.581 38.782 179.16 15M293.419 38.782C397.309 56.55 476.382 147.044 476.382 256S397.31 455.45 293.419 473.218M293.419 473.218l22.599-40.112M293.419 473.218 332.84 497" style="stroke-width:30;stroke-linecap:round;stroke-linejoin:round;stroke-miterlimit:10;" fill="none" stroke="#000000" stroke-width="30" stroke-linecap="round" stroke-linejoin="round" stroke-miterlimit="10" data-original="#000000" class=""></path><path d="M330.095 373h-148.19c-14.491 0-26.238-11.747-26.238-26.238v-94.77c0-14.491 11.747-26.238 26.238-26.238h148.191c14.491 0 26.238 11.747 26.238 26.238v94.77C356.333 361.253 344.586 373 330.095 373zM333 225.754V202c0-42.526-34.474-77-77-77h0c-42.526 0-77 34.474-77 77v23.754M256 289v20.754" style="stroke-width:30;stroke-linecap:round;stroke-linejoin:round;stroke-miterlimit:10;" fill="none" stroke="#000000" stroke-width="30" stroke-linecap="round" stroke-linejoin="round" stroke-miterlimit="10" data-original="#000000" class=""></path></g></svg>