<svg width="18" height="16" viewBox="0 0 18 16" fill="none" xmlns="http://www.w3.org/2000/svg">
<path d="M8.86043 3.71293L9.00688 3.85938H9.21398H16.5625C16.749 3.85938 16.9278 3.93346 17.0597 4.06532C17.1915 4.19718 17.2656 4.37602 17.2656 4.5625V14.2636C17.2655 14.4299 17.1994 14.5893 17.0818 14.7068C16.9643 14.8244 16.8049 14.8905 16.6386 14.8906H1.38459C1.21218 14.8905 1.04687 14.822 0.924962 14.7L0.571408 15.0536L0.924961 14.7C0.80309 14.5782 0.734549 14.4129 0.734375 14.2406V1.8125C0.734375 1.62602 0.808454 1.44718 0.940316 1.31532C1.07218 1.18346 1.25102 1.10938 1.4375 1.10938L5.96555 1.10938L5.96648 1.10938C6.05855 1.10921 6.14976 1.12726 6.23483 1.16249C6.3199 1.19772 6.39716 1.24944 6.46216 1.31466L6.46277 1.31527L8.86043 3.71293ZM5.96766 1.14063V1.14063H5.96555H1.4375C1.25931 1.14063 1.08841 1.21141 0.962412 1.33741C0.836411 1.46342 0.765625 1.63431 0.765625 1.8125V3.35938V3.85938H1.26562H7.75477H8.96187L8.10832 3.00582L6.44133 1.33883C6.44111 1.33862 6.4409 1.3384 6.44068 1.33819C6.31532 1.21242 6.14526 1.14138 5.96766 1.14063ZM1.37712 14.8594H1.38422L16.7064 14.3314L17.06 14.685C17.06 14.685 17.06 14.685 17.06 14.685C17.1717 14.5733 17.2344 14.4219 17.2344 14.264V4.5625C17.2344 4.38431 17.1636 4.21342 17.0376 4.08742C16.9116 3.96141 16.7407 3.89063 16.5625 3.89063H1.26562H0.765625V4.39063V14.2408H0.765575L0.765675 14.2479C0.767966 14.4093 0.833121 14.5635 0.947296 14.6777C1.06148 14.7919 1.21567 14.857 1.37712 14.8593L1.37712 14.8594Z" fill="black" stroke="black"/>
</svg>
